inDegrees=yes
name=ik_tiny_file
DataType=double
version=3
OpenSimVersion=4.4-2022-07-23-0e9fedc
endheader
time	pelvis_tilt	pelvis_list	pelvis_rotation	pelvis_tx	pelvis_ty	pelvis_tz	hip_flexion_r	hip_adduction_r	hip_rotation_r	knee_angle_r	knee_angle_r_beta	ankle_angle_r	subtalar_angle_r	mtp_angle_r	hip_flexion_l	hip_adduction_l	hip_rotation_l	knee_angle_l	knee_angle_l_beta	ankle_angle_l	subtalar_angle_l	mtp_angle_l	lumbar_extension	lumbar_bending	lumbar_rotation	arm_flex_r	arm_add_r	arm_rot_r	elbow_flex_r	pro_sup_r	wrist_flex_r	wrist_dev_r	arm_flex_l	arm_add_l	arm_rot_l	elbow_flex_l	pro_sup_l	wrist_flex_l	wrist_dev_l
3.96	-11.50258318348152	-20.59222361723424	-11.48684877161941	0	0.9399999999999999	0	42.29408331123074	-10.55083847209978	0	58.99010629679232	1.029571580980465	-4.986555733016276	0	0	42.29408331123074	-10.55083847209978	0	58.99010629679232	1.029571580980465	-4.986555733016276	0	0	14.4720447482316	3.042421506616617	-5.092792647659857	-47.77231842231485	50.82229502525902	71.08715551220708	0.01851365010845017	46.70406768126538	0	5.060652672767929	-9.352791712980608	-20.56518429301591	-13.21642059675486	0.08169669586324095	46.70406768126538	0	5.060652672767929
3.98	-11.50977213609983	-20.59302612639918	-11.4861557009898	0	0.9399999999999999	0	42.29458702577492	-10.55047989761383	0	58.9902534957336	1.029574150086646	-4.986559199715343	0	0	42.29458702577492	-10.55047989761383	0	58.9902534957336	1.029574150086646	-4.986559199715343	0	0	14.47365325813629	3.04005625113824	-5.095063289332227	-47.76672225669009	50.8251210847334	71.09812181411831	0.01851506158350367	46.70318942954795	0	5.060582634143111	-9.349852513740981	-20.56899452361329	-13.21116428768747	0.08115943971630557	46.70318942954795	0	5.060582634143111
4	-11.50936190169949	-20.59366841018198	-11.48863578604821	0	0.9399999999999999	0	42.29501105224546	-10.55017832709655	0	58.99037745782795	1.02957631363334	-4.986562117414466	0	0	42.29501105224546	-10.55017832709655	0	58.99037745782795	1.02957631363334	-4.986562117414466	0	0	14.47386323144318	3.037516233705123	-5.095483501335091	-47.77070284662918	50.81998653442163	71.09112142926298	0.01850528235690281	46.70245063862313	0	5.060523770287853	-9.349909852105258	-20.57244680666388	-13.21784411597051	0.08165854302285788	46.70245063862313	0	5.060523770287853
4.02	-11.5165080680912	-20.59362178930816	-11.4872672561451	0	0.9399999999999999	0	42.29543250686086	-10.54987875807663	0	58.99050069178234	1.029578464471594	-4.986565017092687	0	0	42.29543250686086	-10.54987875807663	0	58.99050069178234	1.029578464471594	-4.986565017092687	0	0	14.47959388821853	3.041327710440975	-5.097834359299316	-47.7761515934795	50.82638283637503	71.09542571903022	0.01851970254283058	46.70171664548868	0	5.060465325811053	-9.345469152010178	-20.57244609529482	-13.21519410900497	0.08159390058631573	46.70171664548868	0	5.060465325811053
4.04	-11.52069927630626	-20.59475276779087	-11.48664546301329	0	0.9399999999999999	0	42.29593208042442	-10.54952359778568	0	58.99064670465138	1.02958101287691	-4.986568454572799	0	0	42.29593208042442	-10.54952359778568	0	58.99064670465138	1.02958101287691	-4.986568454572799	0	0	14.48387706830244	3.039347311196626	-5.098834159264679	-47.76601708281254	50.82534224576285	71.09833613283419	0.01850881611716218	46.70084643272297	0	5.060396049470334	-9.349601444899021	-20.5778442061656	-13.21186216467238	0.08108951857896608	46.70084643272297	0	5.060396049470334
4.06	-11.51452621292466	-20.59197622944839	-11.48792985219177	0	0.9399999999999999	0	42.29642227379507	-10.54917516110252	0	58.99078994515011	1.029583512895234	-4.9865718275558	0	0	42.29642227379507	-10.54917516110252	0	58.99078994515011	1.029583512895234	-4.9865718275558	0	0	14.47834127476862	3.040243098535727	-5.092749325538799	-47.77368577501257	50.83230322844968	71.10198484620898	0.01852268123155344	46.69999262408194	0	5.060328110748817	-9.348030412125905	-20.57567859070786	-13.21180614554454	0.08106489950834363	46.69999262408194	0	5.060328110748817
4.08	-11.51353542407076	-20.59058124278345	-11.48954611834688	0	0.9399999999999999	0	42.29684603630201	-10.5488742974741	0	58.99091385158827	1.029585675470545	-4.986574742657322	0	0	42.29684603630201	-10.5488742974741	0	58.99091385158827	1.029585675470545	-4.986574742657322	0	0	14.47953949040121	3.03647812306729	-5.094574924838825	-47.77697720680984	50.82512447931914	71.09374359262236	0.01851308572710768	46.69925519988029	0	5.060269493325411	-9.349046579629718	-20.57736638364161	-13.21690750476378	0.08152724928721365	46.69925519988029	0	5.060269493325411
4.1	-11.50798272806855	-20.59306413445303	-11.48857927837281	0	0.9399999999999999	0	42.29734237622586	-10.54852185308722	0	58.99105892097776	1.029588207409035	-4.986578157320753	0	0	42.29734237622586	-10.54852185308722	0	58.99105892097776	1.029588207409035	-4.986578157320753	0	0	14.47507245205028	3.038897627231511	-5.092936071882613	-47.77176549853	50.82551455524629	71.09882774155315	0.01851014888158988	46.69839133345592	0	5.060200840769912	-9.354190520265087	-20.57635204476661	-13.21519268821301	0.08108358423529761	46.69839133345592	0	5.060200840769912
4.12	-11.50946485063331	-20.59026498504749	-11.48870769269537	0	0.9399999999999999	0	42.29776419964548	-10.54822261613788	0	58.99118226824454	1.029590360224964	-4.986581058716513	0	0	42.29776419964548	-10.54822261613788	0	58.99118226824454	1.029590360224964	-4.986581058716513	0	0	14.47728268757693	3.035675908050644	-5.09498038849785	-47.77456246535412	50.82149691861378	71.09272337641272	0.01850547450797259	46.69765771795832	0	5.060142593578304	-9.352276506023088	-20.57440669786213	-13.22038390991407	0.08153141529996709	46.69765771795832	0	5.060142593578304
4.14	-11.50854664421944	-20.58872300962888	-11.4887158904651	0	0.9399999999999999	0	42.29826082358983	-10.54787028434572	0	58.99132743673916	1.029592893893165	-4.986584474848542	0	0	42.29826082358983	-10.54787028434572	0	58.99132743673916	1.029592893893165	-4.986584474848542	0	0	14.47650563379461	3.034183715527871	-5.094293152369358	-47.76527648354806	50.8180753332379	71.09629432173921	0.01849943577043643	46.69679390924995	0	5.060074027182128	-9.354827666340462	-20.57507584544915	-13.21787578846674	0.08106841691172825	46.69679390924995	0	5.060074027182128
4.16	-11.5086358839975	-20.58891129591354	-11.49043682355596	0	0.9399999999999999	0	42.29869280502813	-10.54756405534653	0	58.9914537484822	1.029595098448965	-4.986587445847988	0	0	42.29869280502813	-10.54756405534653	0	58.9914537484822	1.029595098448965	-4.986587445847988	0	0	14.47439451772018	3.034591710336637	-5.094269560682434	-47.77351341273254	50.82239803747707	71.09246040281049	0.01850540922611036	46.6960429873467	0	5.060014470163728	-9.349122275617463	-20.57138122377814	-13.21999875799149	0.08151342565445548	46.6960429873467	0	5.060014470163728
4.18	-11.5112634232349	-20.58822491429343	-11.48848766466197	0	0.9399999999999999	0	42.29919083739945	-10.54721105261424	0	58.99159934864221	1.029597639651149	-4.986590871148442	0	0	42.29919083739945	-10.54721105261424	0	58.99159934864221	1.029597639651149	-4.986590871148442	0	0	14.47720140835167	3.03323404722007	-5.094856102652655	-47.76091703170922	50.82045071338889	71.09550180173323	0.01850028963956867	46.69517730862719	0	5.05994583885454	-9.352353187354415	-20.57694960788573	-13.21834788080149	0.08108058132070459	46.69517730862719	0	5.05994583885454
4.2	-11.50907611599718	-20.58736169978861	-11.49000470620499	0	0.9399999999999999	0	42.29962255622733	-10.54690526455433	0	58.99172559032059	1.02959984298409	-4.986593839972464	0	0	42.29962255622733	-10.54690526455433	0	58.99172559032059	1.02959984298409	-4.986593839972464	0	0	14.47411072969269	3.03251980359341	-5.093767395064727	-47.76928888448419	50.8217396076665	71.09025035682001	0.01850648470641459	46.69442728494116	0	5.059886422377541	-9.348084534631331	-20.57484314922075	-13.22058844969468	0.08157396413454152	46.69442728494116	0	5.059886422377541
4.22	-11.51320986830977	-20.58563971159251	-11.48799812328031	0	0.9399999999999999	0	42.30011983553153	-10.54655307307706	0	58.99187097275137	1.029602380386182	-4.986597259710326	0	0	42.30011983553153	-10.54655307307706	0	58.99187097275137	1.029602380386182	-4.986597259710326	0	0	14.47758511439743	3.031670649986462	-5.093596156316538	-47.76046265278246	50.82494043226385	71.09567549452707	0.01850855053812601	46.69356339169058	0	5.059818010607972	-9.350988233643871	-20.57474185683139	-13.21942884904594	0.08109046830321828	46.69356339169058	0	5.059818010607972
4.24	-11.51186244274221	-20.58561751164975	-11.49002540491088	0	0.9399999999999999	0	42.30054869418439	-10.54624959381578	0	58.99199639487905	1.029604569415264	-4.986600208419047	0	0	42.30054869418439	-10.54624959381578	0	58.99199639487905	1.029604569415264	-4.986600208419047	0	0	14.47737720568228	3.029369145902179	-5.09253095259503	-47.76672833049714	50.82097242026275	71.0873264037085	0.0185042132219634	46.69281883643647	0	5.059759099392426	-9.348191802686607	-20.57573447511173	-13.22149024950016	0.08156251848551342	46.69281883643647	0	5.059759099392426
4.26	-11.51200352982869	-20.58817394728533	-11.48825900231549	0	0.9399999999999999	0	42.30104683111366	-10.5458971033675	0	58.99214204102905	1.029607111420125	-4.986603633588435	0	0	42.30104683111366	-10.5458971033675	0	58.99214204102905	1.029607111420125	-4.986603633588435	0	0	14.47783076866311	3.033097409793109	-5.091912146571903	-47.75979066813916	50.82457214971991	71.09285677160599	0.01851038585501646	46.69195399275868	0	5.059690693656894	-9.34995129361209	-20.57679477248754	-13.217908652732	0.08103096137216165	46.69195399275868	0	5.059690693656894
4.28	-11.51125548155603	-20.58779449635677	-11.48907625548219	0	0.9399999999999999	0	42.30146995962433	-10.54559796519938	0	58.99226580676213	1.029609271539668	-4.986606542436892	0	0	42.30146995962433	-10.54559796519938	0	58.99226580676213	1.029609271539668	-4.986606542436892	0	0	14.47949946938706	3.031487642410934	-5.092789592209026	-47.76304992000578	50.81851297978437	71.08237864278473	0.01850384975208402	46.69121989340654	0	5.05963268132771	-9.351271377532791	-20.57822893774247	-13.22281397065416	0.08155023372389386	46.69121989340654	0	5.05963268132771
4.3	-11.50915064440213	-20.58684754819608	-11.48915244610145	0	0.9399999999999999	0	42.30188656912129	-10.54530358127927	0	58.99238768035502	1.029611398635135	-4.98660940621614	0	0	42.30188656912129	-10.54530358127927	0	58.99238768035502	1.029611398635135	-4.98660940621614	0	0	14.47997977734781	3.035785354820541	-5.091485716062901	-47.76630405754238	50.82017113553146	71.08182486341722	0.01850836109870913	46.69049736679526	0	5.059575617440109	-9.352512045270876	-20.57551540549517	-13.2226624453496	0.08152653499328223	46.69049736679526	0	5.059575617440109
4.32	-11.51349470647471	-20.58917148378587	-11.48732566540309	0	0.9399999999999999	0	42.30238680214453	-10.54495005829526	0	58.99253395981131	1.029613951693276	-4.986612845110424	0	0	42.30238680214453	-10.54495005829526	0	58.99253395981131	1.029613951693276	-4.986612845110424	0	0	14.4821836368923	3.03580357084104	-5.093480928662495	-47.75881782480673	50.8236386133666	71.0881522894059	0.01850846535367191	46.68962967390117	0	5.059507104247894	-9.352897980806549	-20.57835521493381	-13.21724783973471	0.08099967410209592	46.68962967390117	0	5.059507104247894
